<?xml version="1.0" standalone="no"?>
<svg id="CAMSVG" xmlns="http://www.w3.org/2000/svg" height="1400px" width="2400px"><rect id="background" x="0" y="0" width="100%" height="100%" fill="white"></rect><marker id="arrowRight" markerWidth="30" markerHeight="15" refX="30" refY="7.5" orient="auto" markerUnits="userSpaceOnUse"><polygon points="0 0, 0 0, 0 0" fill="#8c8c8c"></polygon></marker><marker id="arrowLeft" markerWidth="30" markerHeight="15" refX="0" refY="7.5" orient="auto" markerUnits="userSpaceOnUse"><polygon points="0 0, 0 0, 0 0" fill="#8c8c8c"></polygon></marker><g transform="translate(830,550) scale(0.45)"><rect id="a78771bf-b2a8-41dc-866f-ca568feee37a" class="node" x="-100" y="-60" width="200" height="120" transform="translate(0,0)" fill="#F0EEC0" stroke="#F3F033" stroke-width="5"></rect><text id="a78771bf-b2a8-41dc-866f-ca568feee37a" class="noselect node" x="0" fill="black" alignment-baseline="center" text-anchor="middle" font-size="20px" y="-20">Acceptance  <tspan dy="1.1em" x="0">of</tspan> a new  <tspan dy="1.1em" x="0">material</tspan> system</text></g><g transform="translate(280,200) scale(0.45)"><rect id="a90066a9-efb6-4da3-9776-298117dfedd2" class="node" x="-100" y="-60" width="200" height="120" transform="translate(0,0)" fill="#F0EEC0" stroke="#F3F033" stroke-width="5"></rect><text id="a90066a9-efb6-4da3-9776-298117dfedd2" class="noselect node" x="0" fill="black" alignment-baseline="center" text-anchor="middle" font-size="20px" y="0">energy generating</text></g><g transform="translate(400,200) scale(0.45)"><rect id="ff812d98-b743-4a08-9700-8a730319d13b" class="node" x="-100" y="-60" width="200" height="120" transform="translate(0,0)" fill="#F0EEC0" stroke="#F3F033" stroke-width="5"></rect><text id="ff812d98-b743-4a08-9700-8a730319d13b" class="noselect node" x="0" fill="black" alignment-baseline="center" text-anchor="middle" font-size="20px" y="0">durable</text></g><g transform="translate(520,200) scale(0.45)"><rect id="87c9237c-cee3-46a3-a863-d58186baa654" class="node" x="-100" y="-60" width="200" height="120" transform="translate(0,0)" fill="#F0EEC0" stroke="#F3F033" stroke-width="5"></rect><text id="87c9237c-cee3-46a3-a863-d58186baa654" class="noselect node" x="0" fill="black" alignment-baseline="center" text-anchor="middle" font-size="20px" y="0">electronics-free</text></g><g transform="translate(640,200) scale(0.45)"><rect id="d1597cd2-0af5-420e-b0d9-a283d5c68c05" class="node" x="-100" y="-60" width="200" height="120" transform="translate(0,0)" fill="#F0EEC0" stroke="#F3F033" stroke-width="5"></rect><text id="d1597cd2-0af5-420e-b0d9-a283d5c68c05" class="noselect node" x="0" fill="black" alignment-baseline="center" text-anchor="middle" font-size="20px" y="0">intelligent</text></g><g transform="translate(760,200) scale(0.45)"><rect id="17bcbf20-963d-4ea5-a9e8-014902be8df6" class="node" x="-100" y="-60" width="200" height="120" transform="translate(0,0)" fill="#F0EEC0" stroke="#F3F033" stroke-width="5"></rect><text id="17bcbf20-963d-4ea5-a9e8-014902be8df6" class="noselect node" x="0" fill="black" alignment-baseline="center" text-anchor="middle" font-size="20px" y="-20">passive  <tspan dy="1.1em" x="0">shape</tspan> change  <tspan dy="1.1em" x="0">due</tspan> to  <tspan dy="1.1em" x="0">environmental</tspan>  <tspan dy="1.1em" x="0">impact</tspan></text></g><g transform="translate(880,200) scale(0.45)"><rect id="80028830-6a17-40d7-b58a-67b868501f8e" class="node" x="-100" y="-60" width="200" height="120" transform="translate(0,0)" fill="#F0EEC0" stroke="#F3F033" stroke-width="5"></rect><text id="80028830-6a17-40d7-b58a-67b868501f8e" class="noselect node" x="0" fill="black" alignment-baseline="center" text-anchor="middle" font-size="20px" y="0">self-repairing</text></g><g transform="translate(1000,200) scale(0.45)"><rect id="f89d55db-815b-4e09-9e48-77c1cf274862" class="node" x="-100" y="-60" width="200" height="120" transform="translate(0,0)" fill="#F0EEC0" stroke="#F3F033" stroke-width="5"></rect><text id="f89d55db-815b-4e09-9e48-77c1cf274862" class="noselect node" x="0" fill="black" alignment-baseline="center" text-anchor="middle" font-size="20px" y="0">energy storing</text></g><g transform="translate(1120,200) scale(0.45)"><rect id="f4a554e1-d191-4897-89c6-1737c37d3d38" class="node" x="-100" y="-60" width="200" height="120" transform="translate(0,0)" fill="#F0EEC0" stroke="#F3F033" stroke-width="5"></rect><text id="f4a554e1-d191-4897-89c6-1737c37d3d38" class="noselect node" x="0" fill="black" alignment-baseline="center" text-anchor="middle" font-size="20px" y="0">long-lasting</text></g><g transform="translate(1240,200) scale(0.45)"><rect id="308e98bf-559e-4929-a6bf-4b32c9d85574" class="node" x="-100" y="-60" width="200" height="120" transform="translate(0,0)" fill="#F0EEC0" stroke="#F3F033" stroke-width="5"></rect><text id="308e98bf-559e-4929-a6bf-4b32c9d85574" class="noselect node" x="0" fill="black" alignment-baseline="center" text-anchor="middle" font-size="20px" y="0">energy-autonomous</text></g><g transform="translate(1360,200) scale(0.45)"><rect id="82f4dad7-dd25-49a3-b08d-6e471519ce94" class="node" x="-100" y="-60" width="200" height="120" transform="translate(0,0)" fill="#F0EEC0" stroke="#F3F033" stroke-width="5"></rect><text id="82f4dad7-dd25-49a3-b08d-6e471519ce94" class="noselect node" x="0" fill="black" alignment-baseline="center" text-anchor="middle" font-size="20px" y="0">reliable</text></g><g transform="translate(280,870) scale(0.45)"><rect id="85177eae-8619-41a8-b8ee-e5bbb395614f" class="node" x="-100" y="-60" width="200" height="120" transform="translate(0,0)" fill="#F0EEC0" stroke="#F3F033" stroke-width="5"></rect><text id="85177eae-8619-41a8-b8ee-e5bbb395614f" class="noselect node" x="0" fill="black" alignment-baseline="center" text-anchor="middle" font-size="20px" y="0">responsive</text></g><g transform="translate(400,870) scale(0.45)"><rect id="ae412392-9583-402d-8237-671c652db5f8" class="node" x="-100" y="-60" width="200" height="120" transform="translate(0,0)" fill="#F0EEC0" stroke="#F3F033" stroke-width="5"></rect><text id="ae412392-9583-402d-8237-671c652db5f8" class="noselect node" x="0" fill="black" alignment-baseline="center" text-anchor="middle" font-size="20px" y="0">maintenance-free</text></g><g transform="translate(520,870) scale(0.45)"><rect id="9a0aae58-fd48-4ee6-bfbb-2e0dd8ddd4ef" class="node" x="-100" y="-60" width="200" height="120" transform="translate(0,0)" fill="#F0EEC0" stroke="#F3F033" stroke-width="5"></rect><text id="9a0aae58-fd48-4ee6-bfbb-2e0dd8ddd4ef" class="noselect node" x="0" fill="black" alignment-baseline="center" text-anchor="middle" font-size="20px" y="0">technological</text></g><g transform="translate(640,870) scale(0.45)"><rect id="13f56bd8-8618-4c21-9b50-c10e7da62f04" class="node" x="-100" y="-60" width="200" height="120" transform="translate(0,0)" fill="#F0EEC0" stroke="#F3F033" stroke-width="5"></rect><text id="13f56bd8-8618-4c21-9b50-c10e7da62f04" class="noselect node" x="0" fill="black" alignment-baseline="center" text-anchor="middle" font-size="20px" y="0">insect-like</text></g><g transform="translate(760,870) scale(0.45)"><rect id="a2c3f9c4-7e8d-4e53-a030-ebd7a2965af5" class="node" x="-100" y="-60" width="200" height="120" transform="translate(0,0)" fill="#F0EEC0" stroke="#F3F033" stroke-width="5"></rect><text id="a2c3f9c4-7e8d-4e53-a030-ebd7a2965af5" class="noselect node" x="0" fill="black" alignment-baseline="center" text-anchor="middle" font-size="20px" y="0">sustainable</text></g><g transform="translate(880,870) scale(0.45)"><rect id="3818bc0e-69ca-43ea-9de2-fc323c72c443" class="node" x="-100" y="-60" width="200" height="120" transform="translate(0,0)" fill="#F0EEC0" stroke="#F3F033" stroke-width="5"></rect><text id="3818bc0e-69ca-43ea-9de2-fc323c72c443" class="noselect node" x="0" fill="black" alignment-baseline="center" text-anchor="middle" font-size="20px" y="0">ecologically</text></g><g transform="translate(1000,870) scale(0.45)"><rect id="6504d2e6-deb0-4801-8437-bc51d022d731" class="node" x="-100" y="-60" width="200" height="120" transform="translate(0,0)" fill="#F0EEC0" stroke="#F3F033" stroke-width="5"></rect><text id="6504d2e6-deb0-4801-8437-bc51d022d731" class="noselect node" x="0" fill="black" alignment-baseline="center" text-anchor="middle" font-size="20px" y="0">multifunctional</text></g><g transform="translate(1120,870) scale(0.45)"><rect id="05493c1a-cdbb-47e9-b2e2-d35f1dbd907e" class="node" x="-100" y="-60" width="200" height="120" transform="translate(0,0)" fill="#F0EEC0" stroke="#F3F033" stroke-width="5"></rect><text id="05493c1a-cdbb-47e9-b2e2-d35f1dbd907e" class="noselect node" x="0" fill="black" alignment-baseline="center" text-anchor="middle" font-size="20px" y="0">life-like</text></g><g transform="translate(1240,870) scale(0.45)"><rect id="2a45844e-4b1c-4d7c-a3d5-bf6d9ef1b739" class="node" x="-100" y="-60" width="200" height="120" transform="translate(0,0)" fill="#F0EEC0" stroke="#F3F033" stroke-width="5"></rect><text id="2a45844e-4b1c-4d7c-a3d5-bf6d9ef1b739" class="noselect node" x="0" fill="black" alignment-baseline="center" text-anchor="middle" font-size="20px" y="0">autonomous</text></g><g transform="translate(1360,870) scale(0.45)"><rect id="74d49bd4-b9f6-418e-bb89-dab36d0203cb" class="node" x="-100" y="-60" width="200" height="120" transform="translate(0,0)" fill="#F0EEC0" stroke="#F3F033" stroke-width="5"></rect><text id="74d49bd4-b9f6-418e-bb89-dab36d0203cb" class="noselect node" x="0" fill="black" alignment-baseline="center" text-anchor="middle" font-size="20px" y="-20">active  <tspan dy="1.1em" x="0">behavior</tspan> change  <tspan dy="1.1em" x="0">due</tspan> to  <tspan dy="1.1em" x="0">environmental</tspan>  <tspan dy="1.1em" x="0">impact</tspan></text></g><g transform="translate(260,370) scale(0.45)"><rect id="6a3b0ed1-826d-453d-a8ab-80ebf8274934" class="node" x="-100" y="-60" width="200" height="120" transform="translate(0,0)" fill="#F0EEC0" stroke="#F3F033" stroke-width="5"></rect><text id="6a3b0ed1-826d-453d-a8ab-80ebf8274934" class="noselect node" x="0" fill="black" alignment-baseline="center" text-anchor="middle" font-size="20px" y="-20">passive  <tspan dy="1.1em" x="0">behavior</tspan>  <tspan dy="1.1em" x="0">change</tspan> due to  <tspan dy="1.1em" x="0">environmental</tspan>  <tspan dy="1.1em" x="0">impact</tspan></text></g><g transform="translate(260,440) scale(0.45)"><rect id="aec862e9-41a6-4293-8988-c499619444e7" class="node" x="-100" y="-60" width="200" height="120" transform="translate(0,0)" fill="#F0EEC0" stroke="#F3F033" stroke-width="5"></rect><text id="aec862e9-41a6-4293-8988-c499619444e7" class="noselect node" x="0" fill="black" alignment-baseline="center" text-anchor="middle" font-size="20px" y="0">contains plastic</text></g><g transform="translate(260,510) scale(0.45)"><rect id="46264175-be53-4171-8835-c4ba7e8e74b2" class="node" x="-100" y="-60" width="200" height="120" transform="translate(0,0)" fill="#F0EEC0" stroke="#F3F033" stroke-width="5"></rect><text id="46264175-be53-4171-8835-c4ba7e8e74b2" class="noselect node" x="0" fill="black" alignment-baseline="center" text-anchor="middle" font-size="20px" y="-20">active  <tspan dy="1.1em" x="0">shape</tspan> change due  <tspan dy="1.1em" x="0">to</tspan>  <tspan dy="1.1em" x="0">environmental</tspan>  <tspan dy="1.1em" x="0">impact</tspan></text></g><g transform="translate(260,580) scale(0.45)"><rect id="ea851ac5-2d1c-4422-afb0-14b67a5449f1" class="node" x="-100" y="-60" width="200" height="120" transform="translate(0,0)" fill="#F0EEC0" stroke="#F3F033" stroke-width="5"></rect><text id="ea851ac5-2d1c-4422-afb0-14b67a5449f1" class="noselect node" x="0" fill="black" alignment-baseline="center" text-anchor="middle" font-size="20px" y="0">easily destructible</text></g><g transform="translate(260,650) scale(0.45)"><rect id="e17c6174-91d7-4581-b0cd-36432353da06" class="node" x="-100" y="-60" width="200" height="120" transform="translate(0,0)" fill="#F0EEC0" stroke="#F3F033" stroke-width="5"></rect><text id="e17c6174-91d7-4581-b0cd-36432353da06" class="noselect node" x="0" fill="black" alignment-baseline="center" text-anchor="middle" font-size="20px" y="0">robust</text></g><g transform="translate(260,720) scale(0.45)"><rect id="22116e82-a330-450c-98a4-a3f7959d448a" class="node" x="-100" y="-60" width="200" height="120" transform="translate(0,0)" fill="#F0EEC0" stroke="#F3F033" stroke-width="5"></rect><text id="22116e82-a330-450c-98a4-a3f7959d448a" class="noselect node" x="0" fill="black" alignment-baseline="center" text-anchor="middle" font-size="20px" y="-20"> <tspan dy="1.1em" x="0">environmentally</tspan>  <tspan dy="1.1em" x="0">harmful</tspan></text></g><g transform="translate(1380,370) scale(0.45)"><rect id="9c887dec-d547-4a18-a18e-1015dbd8f2df" class="node" x="-100" y="-60" width="200" height="120" transform="translate(0,0)" fill="#F0EEC0" stroke="#F3F033" stroke-width="5"></rect><text id="9c887dec-d547-4a18-a18e-1015dbd8f2df" class="noselect node" x="0" fill="black" alignment-baseline="center" text-anchor="middle" font-size="20px" y="0">high-maintenance</text></g><g transform="translate(1380,440) scale(0.45)"><rect id="7b6129cf-0693-4acb-90a3-e75a8ffeb94c" class="node" x="-100" y="-60" width="200" height="120" transform="translate(0,0)" fill="#F0EEC0" stroke="#F3F033" stroke-width="5"></rect><text id="7b6129cf-0693-4acb-90a3-e75a8ffeb94c" class="noselect node" x="0" fill="black" alignment-baseline="center" text-anchor="middle" font-size="20px" y="0">energy-efficient</text></g><g transform="translate(1380,510) scale(0.45)"><rect id="41a7571e-f6a3-483f-9a5a-6e45978281dc" class="node" x="-100" y="-60" width="200" height="120" transform="translate(0,0)" fill="#F0EEC0" stroke="#F3F033" stroke-width="5"></rect><text id="41a7571e-f6a3-483f-9a5a-6e45978281dc" class="noselect node" x="0" fill="black" alignment-baseline="center" text-anchor="middle" font-size="20px" y="-20"> <tspan dy="1.1em" x="0">environmentally</tspan>  <tspan dy="1.1em" x="0">friendly</tspan></text></g><g transform="translate(1380,580) scale(0.45)"><rect id="7747c691-1175-4325-8304-246aa86f2470" class="node" x="-100" y="-60" width="200" height="120" transform="translate(0,0)" fill="#F0EEC0" stroke="#F3F033" stroke-width="5"></rect><text id="7747c691-1175-4325-8304-246aa86f2470" class="noselect node" x="0" fill="black" alignment-baseline="center" text-anchor="middle" font-size="20px" y="0">resilient</text></g><g transform="translate(1380,650) scale(0.45)"><rect id="f4e477ed-6998-4421-8fa8-53048a8af446" class="node" x="-100" y="-60" width="200" height="120" transform="translate(0,0)" fill="#F0EEC0" stroke="#F3F033" stroke-width="5"></rect><text id="f4e477ed-6998-4421-8fa8-53048a8af446" class="noselect node" x="0" fill="black" alignment-baseline="center" text-anchor="middle" font-size="20px" y="0">bio-inspired</text></g><g transform="translate(1380,720) scale(0.45)"><rect id="94e10735-4cd0-48c1-842f-97de97160a88" class="node" x="-100" y="-60" width="200" height="120" transform="translate(0,0)" fill="#F0EEC0" stroke="#F3F033" stroke-width="5"></rect><text id="94e10735-4cd0-48c1-842f-97de97160a88" class="noselect node" x="0" fill="black" alignment-baseline="center" text-anchor="middle" font-size="20px" y="0">self-healing</text></g></svg>