<?xml version="1.0" standalone="no"?>
<svg id="CAMSVG" xmlns="http://www.w3.org/2000/svg" height="1400px" width="2400px"><rect id="background" x="0" y="0" width="100%" height="100%" fill="white"></rect><marker id="arrowRight" markerWidth="30" markerHeight="15" refX="30" refY="7.5" orient="auto" markerUnits="userSpaceOnUse"><polygon points="0 0, 0 0, 0 0" fill="#8c8c8c"></polygon></marker><marker id="arrowLeft" markerWidth="30" markerHeight="15" refX="0" refY="7.5" orient="auto" markerUnits="userSpaceOnUse"><polygon points="0 0, 0 0, 0 0" fill="#8c8c8c"></polygon></marker><g><line class="connector" id="8108659c-42b6-48b5-8655-f5f919029db8" transform="translate(985,541) scale(1,1) " x1="-59.99865631281034" y1="-0.32786150990606744" x2="-123.00134368718965" y2="-0.6721384900939325" stroke="#808080" stroke-width="9" marker-start="url(#arrowRight)" stroke-linecap="butt"></line><line transform="translate(985,541) " class="outer-connector" id="8108659c-42b6-48b5-8655-f5f919029db8" x1="0" y1="0" x2="-143.00104508836463" y2="-0.7814264758927028" stroke="rgba(255, 255, 255, 0)" stroke-width="30"></line></g><g><line class="connector" id="d6b913a3-cc7e-432d-8e7f-e22b36ba802d" transform="translate(1106,424) scale(1,1) " x1="-37.33910187954441" y1="36.10475140418756" x2="-83.66089812045561" y2="80.89524859581245" stroke="#808080" stroke-width="9" marker-start="url(#arrowRight)" stroke-linecap="butt"></line><line transform="translate(1106,424) " class="outer-connector" id="d6b913a3-cc7e-432d-8e7f-e22b36ba802d" x1="0" y1="0" x2="-98.03868622159469" y2="94.79773791674857" stroke="rgba(255, 255, 255, 0)" stroke-width="30"></line></g><g><line class="connector" id="a8d816d1-037d-458d-a0db-651881e01654" transform="translate(669,437) scale(1,1) " x1="42.62557431241062" y1="33.01078311412252" x2="90.37442568758937" y2="69.9892168858775" stroke="#808080" stroke-width="3" marker-start="url(#arrowRight)" stroke-linecap="butt"></line><line transform="translate(669,437) " class="outer-connector" id="a8d816d1-037d-458d-a0db-651881e01654" x1="0" y1="0" x2="106.18704318138491" y2="82.23507855400486" stroke="rgba(255, 255, 255, 0)" stroke-width="30"></line></g><g><line class="connector" id="a5515f83-cb61-4c69-8c28-68d0835e95b4" transform="translate(669,437) scale(1,1) " x1="-59.72528064514726" y1="-4.679966020701837" x2="-208.27471935485275" y2="-16.320033979298163" stroke="#808080" stroke-width="3" marker-start="url(#arrowRight)" stroke-linecap="butt"></line><line transform="translate(669,437) " class="outer-connector" id="a5515f83-cb61-4c69-8c28-68d0835e95b4" x1="0" y1="0" x2="-228.21360057456812" y2="-17.88240900024601" stroke="rgba(255, 255, 255, 0)" stroke-width="30"></line></g><g><line class="connector" id="6b1a5599-2a3b-4a51-a839-9d59d593268e" transform="translate(204,421) scale(1,1) " x1="59.97102937424495" y1="-1.5221073445239834" x2="137.02897062575508" y2="-3.477892655476017" stroke="#808080" stroke-width="3" marker-start="url(#arrowRight)" stroke-linecap="butt"></line><line transform="translate(204,421) " class="outer-connector" id="6b1a5599-2a3b-4a51-a839-9d59d593268e" x1="0" y1="0" x2="157.0225319316129" y2="-3.9853434500409364" stroke="rgba(255, 255, 255, 0)" stroke-width="30"></line></g><g><line class="connector" id="dbd276ed-839f-4c07-afcb-362fd6a16e0e" transform="translate(401,416) scale(1,1) " x1="-30.14137895920815" y1="38.84888843631273" x2="-59.85862104079185" y2="77.15111156368727" stroke="#808080" stroke-width="3" marker-start="url(#arrowRight)" stroke-linecap="butt"></line><line transform="translate(401,416) " class="outer-connector" id="dbd276ed-839f-4c07-afcb-362fd6a16e0e" x1="0" y1="0" x2="-72.11856309832362" y2="92.95281466006153" stroke="rgba(255, 255, 255, 0)" stroke-width="30"></line></g><g><line class="connector" id="0bb954f3-0dba-4a3b-bbcb-318408e7fea3" transform="translate(376,278) scale(1,1) " x1="49.596146400934444" y1="26.913949753408115" x2="243.40385359906554" y2="132.0860502465919" stroke="#808080" stroke-width="3" marker-start="url(#arrowRight)" stroke-linecap="butt"></line><line transform="translate(376,278) " class="outer-connector" id="0bb954f3-0dba-4a3b-bbcb-318408e7fea3" x1="0" y1="0" x2="260.9823594895618" y2="141.625239449967" stroke="rgba(255, 255, 255, 0)" stroke-width="30"></line></g><g><line class="connector" id="554239e9-b23c-4767-90d1-a14f3ca371f4" transform="translate(376,278) scale(1,1) " x1="-18.235689323161186" y1="-40.615853492495376" x2="-25.764310676838804" y2="-57.384146507504624" stroke="#808080" stroke-width="3" marker-start="url(#arrowRight)" stroke-linecap="butt"></line><line transform="translate(376,278) " class="outer-connector" id="554239e9-b23c-4767-90d1-a14f3ca371f4" x1="0" y1="0" x2="-33.95611873351561" y2="-75.62953717919387" stroke="rgba(255, 255, 255, 0)" stroke-width="30"></line></g><g><line class="connector" id="4d5f681e-432d-4922-9574-d13adf8580f1" transform="translate(376,278) scale(1,1) " x1="-59.51911672915811" y1="6.183804335496946" x2="-94.4808832708419" y2="9.816195664503056" stroke="#808080" stroke-width="3" marker-start="url(#arrowRight)" stroke-linecap="butt"></line><line transform="translate(376,278) " class="outer-connector" id="4d5f681e-432d-4922-9574-d13adf8580f1" x1="0" y1="0" x2="-114.37380537246803" y2="11.882992765970704" stroke="rgba(255, 255, 255, 0)" stroke-width="30"></line></g><g><line class="connector" id="828cce60-89ab-45f1-bde2-932c3be3f234" transform="translate(669,437) scale(1,1) " x1="-40.38343142085512" y1="34.45299743597429" x2="-102.61656857914488" y2="87.54700256402569" stroke="#808080" stroke-width="6" marker-start="url(#arrowRight)" stroke-linecap="butt"></line><line transform="translate(669,437) " class="outer-connector" id="828cce60-89ab-45f1-bde2-932c3be3f234" x1="0" y1="0" x2="-117.83170239954275" y2="100.52774610310638" stroke="rgba(255, 255, 255, 0)" stroke-width="30"></line></g><g><line class="connector" id="c52b37d0-4ac4-4955-aa9b-8c1e46f450a8" transform="translate(401,416) scale(1,1) " x1="33.12221039031504" y1="37.8918086865204" x2="91.87778960968498" y2="105.1081913134796" stroke="#808080" stroke-width="9" marker-start="url(#arrowRight)" stroke-dasharray="20,10"></line><line transform="translate(401,416) " class="outer-connector" id="c52b37d0-4ac4-4955-aa9b-8c1e46f450a8" x1="0" y1="0" x2="105.0404252075775" y2="120.16624643746863" stroke="rgba(255, 255, 255, 0)" stroke-width="30"></line></g><g><line class="connector" id="68fc05f3-a765-4bef-a865-58333e844b8d" transform="translate(985,541) scale(1,1) " x1="49.29004370329774" y1="27.247291239711178" x2="111.70995629670225" y2="61.752708760288826" stroke="#808080" stroke-width="3" marker-start="url(#arrowRight)" stroke-linecap="butt"></line><line transform="translate(985,541) " class="outer-connector" id="68fc05f3-a765-4bef-a865-58333e844b8d" x1="0" y1="0" x2="129.21357568484277" y2="71.42862258354663" stroke="rgba(255, 255, 255, 0)" stroke-width="30"></line></g><g><line class="connector" id="00f637d8-69b2-4911-a899-53a41e76d897" transform="translate(526,559) scale(1,1) " x1="-29.719530056435307" y1="38.96560607399297" x2="-60.28046994356468" y2="79.03439392600706" stroke="#808080" stroke-width="3" marker-start="url(#arrowRight)" stroke-linecap="butt"></line><line transform="translate(526,559) " class="outer-connector" id="00f637d8-69b2-4911-a899-53a41e76d897" x1="0" y1="0" x2="-72.40945346203924" y2="94.93683898356258" stroke="rgba(255, 255, 255, 0)" stroke-width="30"></line></g><g><line class="connector" id="515cd089-7d3a-4c2f-b041-ff95cc55e5ef" transform="translate(985,541) scale(1,1) " x1="-13.244519847175512" y1="40.59733257503796" x2="-32.75548015282451" y2="100.40266742496203" stroke="#808080" stroke-width="3" marker-start="url(#arrowRight)" stroke-linecap="butt"></line><line transform="translate(985,541) " class="outer-connector" id="515cd089-7d3a-4c2f-b041-ff95cc55e5ef" x1="0" y1="0" x2="-38.95854183792958" y2="119.41639998147974" stroke="rgba(255, 255, 255, 0)" stroke-width="30"></line></g><g><line class="connector" id="ac647906-7ff8-40e3-af32-9d70c98befee" transform="translate(939,682) scale(1,1) " x1="-39.474220108189336" y1="34.981219445468604" x2="-83.52577989181067" y2="74.01878055453143" stroke="#808080" stroke-width="9" marker-start="url(#arrowRight)" stroke-linecap="butt"></line><line transform="translate(939,682) " class="outer-connector" id="ac647906-7ff8-40e3-af32-9d70c98befee" x1="0" y1="0" x2="-98.49409147734312" y2="87.28338187829596" stroke="rgba(255, 255, 255, 0)" stroke-width="30"></line></g><g><line class="connector" id="c0ba6e8c-7357-4abc-9134-8651bab21498" transform="translate(939,682) scale(1,1) " x1="6.5014331991416405" y1="40.22761791968888" x2="25.498566800858377" y2="157.77238208031113" stroke="#808080" stroke-width="9" marker-start="url(#arrowRight)" stroke-linecap="butt"></line><line transform="translate(939,682) " class="outer-connector" id="c0ba6e8c-7357-4abc-9134-8651bab21498" x1="0" y1="0" x2="28.689485604584313" y2="177.51619217836537" stroke="rgba(255, 255, 255, 0)" stroke-width="30"></line></g><g><line class="connector" id="0a01466d-4d81-41bb-9847-564a5f69e961" transform="translate(939,682) scale(1,1) " x1="30.93261867830321" y1="38.61774133129779" x2="130.0673813216968" y2="162.38225866870218" stroke="#808080" stroke-width="3" marker-start="url(#arrowRight)" stroke-linecap="butt"></line><line transform="translate(939,682) " class="outer-connector" id="0a01466d-4d81-41bb-9847-564a5f69e961" x1="0" y1="0" x2="142.5707507900634" y2="177.99205533417853" stroke="rgba(255, 255, 255, 0)" stroke-width="30"></line></g><g><line class="connector" id="6723d4bc-ac65-4e8c-bb5b-7b5c219e078b" transform="translate(939,682) scale(1,1) " x1="51.34973015130042" y1="24.84664362159698" x2="196.65026984869954" y2="95.153356378403" stroke="#808080" stroke-width="3" marker-start="url(#arrowRight)" stroke-linecap="butt"></line><line transform="translate(939,682) " class="outer-connector" id="6723d4bc-ac65-4e8c-bb5b-7b5c219e078b" x1="0" y1="0" x2="214.6534548770098" y2="103.86457494048862" stroke="rgba(255, 255, 255, 0)" stroke-width="30"></line></g><g><line class="connector" id="d6d37fdd-e7fc-49be-8255-049c02c1e6ca" transform="translate(1370,867) scale(1,1) " x1="-54.92115386433165" y1="-19.507513667658785" x2="-128.07884613566833" y2="-45.492486332341215" stroke="#808080" stroke-width="9" marker-start="url(#arrowRight)" stroke-dasharray="20,10"></line><line transform="translate(1370,867) " class="outer-connector" id="d6d37fdd-e7fc-49be-8255-049c02c1e6ca" x1="0" y1="0" x2="-146.925306133836" y2="-52.18658414589803" stroke="rgba(255, 255, 255, 0)" stroke-width="30"></line></g><g><line class="connector" id="5167dc0a-263b-42e3-ae50-6506c40bea8f" transform="translate(1370,867) scale(1,1) " x1="-59.84249378951432" y1="3.546221854193442" x2="-210.15750621048565" y2="12.45377814580656" stroke="#808080" stroke-width="9" marker-start="url(#arrowRight)" stroke-dasharray="20,10"></line><line transform="translate(1370,867) " class="outer-connector" id="5167dc0a-263b-42e3-ae50-6506c40bea8f" x1="0" y1="0" x2="-230.12248183073888" y2="13.636887812191935" stroke="rgba(255, 255, 255, 0)" stroke-width="30"></line></g><g><line class="connector" id="583460a4-32ac-4188-91c7-9f678fbb0b87" transform="translate(802,540) scale(1,1) " x1="7.8173791747362555" y1="-40.30836136973381" x2="24.18262082526375" y2="-124.69163863026618" stroke="#808080" stroke-width="9" marker-start="url(#arrowRight)" stroke-dasharray="20,10"></line><line transform="translate(802,540) " class="outer-connector" id="583460a4-32ac-4188-91c7-9f678fbb0b87" x1="0" y1="0" x2="27.9904585719944" y2="-144.3258020118461" stroke="rgba(255, 255, 255, 0)" stroke-width="30"></line></g><g><line class="connector" id="c4ce4644-f6f5-416b-88d6-8cc26105951f" transform="translate(834,375) scale(1,1) " x1="0.040000009999945324" y1="-40.0000099999475" x2="0.10099991950009987" y2="-100.99991950010538" stroke="#808080" stroke-width="3" marker-start="url(#arrowRight)" stroke-linecap="butt"></line><line transform="translate(834,375) " class="outer-connector" id="c4ce4644-f6f5-416b-88d6-8cc26105951f" x1="0" y1="0" x2="0.12099990950010629" y2="-120.99990950011286" stroke="rgba(255, 255, 255, 0)" stroke-width="30"></line></g><g><line class="connector" id="7a389d42-6659-414e-90f8-a1ed43484206" transform="translate(971,880) scale(1,1) " x1="-59.99817443756187" y1="-0.3821539773093113" x2="-97.00182556243813" y2="-0.6178460226906887" stroke="#808080" stroke-width="3" marker-start="url(#arrowRight)" stroke-linecap="butt"></line><line transform="translate(971,880) " class="outer-connector" id="7a389d42-6659-414e-90f8-a1ed43484206" x1="0" y1="0" x2="-117.00141987881047" y2="-0.7452319737503851" stroke="rgba(255, 255, 255, 0)" stroke-width="30"></line></g><g><line class="connector" id="a6005e10-75d2-4f1d-952f-219170ff7a7c" transform="translate(985,541) scale(1,1) " x1="59.220427783878655" y1="-7.858634966581052" x2="151.77957221612135" y2="-20.141365033418943" stroke="#808080" stroke-width="3" marker-start="url(#arrowRight)" stroke-linecap="butt"></line><line transform="translate(985,541) " class="outer-connector" id="a6005e10-75d2-4f1d-952f-219170ff7a7c" x1="0" y1="0" x2="171.60576768342847" y2="-22.772329360834103" stroke="rgba(255, 255, 255, 0)" stroke-width="30"></line></g><g><line class="connector" id="fb1de3d3-ba22-42c2-bf38-f2efa0ad9ce8" transform="translate(1106,424) scale(1,1) " x1="50.8733888249396" y1="-25.4366944124698" x2="89.12661117506038" y2="-44.56330558753019" stroke="#808080" stroke-width="3" marker-start="url(#arrowRight)" stroke-linecap="butt"></line><line transform="translate(1106,424) " class="outer-connector" id="fb1de3d3-ba22-42c2-bf38-f2efa0ad9ce8" x1="0" y1="0" x2="107.0151549950587" y2="-53.50757749752935" stroke="rgba(255, 255, 255, 0)" stroke-width="30"></line></g><g><line class="connector" id="46cf629c-41c4-4d13-b519-940f07e9cff5" transform="translate(1106,424) scale(1,1) " x1="1.667383482028188" y1="-40.0172035686765" x2="3.3326165179718132" y2="-79.9827964313235" stroke="#808080" stroke-width="3" marker-start="url(#arrowRight)" stroke-linecap="butt"></line><line transform="translate(1106,424) " class="outer-connector" id="46cf629c-41c4-4d13-b519-940f07e9cff5" x1="0" y1="0" x2="4.16522741221544" y2="-99.96545789317054" stroke="rgba(255, 255, 255, 0)" stroke-width="30"></line></g><g><line class="connector" id="5cb36612-26dd-43f4-8c15-fa6469d2d020" transform="translate(802,540) scale(1,1) " x1="-34.37473665328766" y1="37.41674874649896" x2="-78.62526334671233" y2="85.58325125350103" stroke="#808080" stroke-width="3" marker-start="url(#arrowRight)" stroke-linecap="butt"></line><line transform="translate(802,540) " class="outer-connector" id="5cb36612-26dd-43f4-8c15-fa6469d2d020" x1="0" y1="0" x2="-92.15601441457751" y2="100.31141392029234" stroke="rgba(255, 255, 255, 0)" stroke-width="30"></line></g><g><line class="connector" id="2fde7e3f-812d-4989-acfb-0c30465c6faf" transform="translate(689,663) scale(1,1) " x1="-18.752902211776036" y1="40.59694215076791" x2="-72.24709778822395" y2="156.4030578492321" stroke="#808080" stroke-width="3" marker-start="url(#arrowRight)" stroke-linecap="butt"></line><line transform="translate(689,663) " class="outer-connector" id="2fde7e3f-812d-4989-acfb-0c30465c6faf" x1="0" y1="0" x2="-80.63410550803971" y2="174.55954708883323" stroke="rgba(255, 255, 255, 0)" stroke-width="30"></line></g><g><line class="connector" id="ad0a7b45-78ad-41f5-b666-00f11d3182a0" transform="translate(689,663) scale(1,1) " x1="-37.45016758844464" y1="36.05016132345606" x2="-69.54983241155536" y2="66.94983867654393" stroke="#808080" stroke-width="3" marker-start="url(#arrowRight)" stroke-linecap="butt"></line><line transform="translate(689,663) " class="outer-connector" id="ad0a7b45-78ad-41f5-b666-00f11d3182a0" x1="0" y1="0" x2="-83.95872842552124" y2="80.82008437223072" stroke="rgba(255, 255, 255, 0)" stroke-width="30"></line></g><g><line class="connector" id="7b8315bd-2ce9-45c8-9d70-054bbc830c15" transform="translate(436,677) scale(1,1) " x1="47.56477817067127" y1="28.99496751499824" x2="98.43522182932871" y2="60.005032485001756" stroke="#808080" stroke-width="3" marker-start="url(#arrowRight)" stroke-linecap="butt"></line><line transform="translate(436,677) " class="outer-connector" id="7b8315bd-2ce9-45c8-9d70-054bbc830c15" x1="0" y1="0" x2="115.51241329169441" y2="70.41510125315618" stroke="rgba(255, 255, 255, 0)" stroke-width="30"></line></g><g><line class="connector" id="4615093c-401e-4791-9d57-7905ff23efda" transform="translate(436,677) scale(1,1) " x1="33.440469438372745" y1="37.77534510630995" x2="128.55953056162727" y2="145.22465489369006" stroke="#808080" stroke-width="3" marker-start="url(#arrowRight)" stroke-linecap="butt"></line><line transform="translate(436,677) " class="outer-connector" id="4615093c-401e-4791-9d57-7905ff23efda" x1="0" y1="0" x2="141.81630438228166" y2="160.19989939479962" stroke="rgba(255, 255, 255, 0)" stroke-width="30"></line></g><g><line class="connector" id="5acdb196-25e4-4158-b8bd-998160b58332" transform="translate(689,663) scale(1,1) " x1="-59.90886582411379" y1="2.698597559644765" x2="-51.09113417588621" y2="2.3014024403552344" stroke="#808080" stroke-width="3" marker-start="url(#arrowRight)" stroke-linecap="butt"></line><line transform="translate(689,663) " class="outer-connector" id="5acdb196-25e4-4158-b8bd-998160b58332" x1="0" y1="0" x2="-71.07087444095103" y2="3.2013907405833795" stroke="rgba(255, 255, 255, 0)" stroke-width="30"></line></g><g><line class="connector" id="f177f979-294e-45d6-a28c-f2830fdc2723" transform="translate(436,677) scale(1,1) " x1="59.81991042451359" y1="-3.791402773384664" x2="82.18008957548639" y2="-5.208597226615335" stroke="#808080" stroke-width="3" marker-start="url(#arrowRight)" stroke-linecap="butt"></line><line transform="translate(436,677) " class="outer-connector" id="f177f979-294e-45d6-a28c-f2830fdc2723" x1="0" y1="0" x2="102.14003959648348" y2="-6.473664481467262" stroke="rgba(255, 255, 255, 0)" stroke-width="30"></line></g><g><line class="connector" id="2429bf8c-94d4-40fd-9bcb-68d44d4bbab0" transform="translate(654,224) scale(1,1) " x1="-59.985907498343835" y1="1.0616974778467936" x2="-53.01409250165617" y2="0.9383025221532066" stroke="#808080" stroke-width="3" marker-start="url(#arrowRight)" stroke-linecap="butt"></line><line transform="translate(654,224) " class="outer-connector" id="2429bf8c-94d4-40fd-9bcb-68d44d4bbab0" x1="0" y1="0" x2="-73.01096065071307" y2="1.292229392048019" stroke="rgba(255, 255, 255, 0)" stroke-width="30"></line></g><g><line class="connector" id="8afb8b01-d00f-41cc-af10-3e15f41485ad" transform="translate(436,677) scale(1,1) " x1="-57.925231695185865" y1="12.715294762357873" x2="-106.07476830481411" y2="23.28470523764212" stroke="#808080" stroke-width="3" marker-start="url(#arrowRight)" stroke-linecap="butt"></line><line transform="translate(436,677) " class="outer-connector" id="8afb8b01-d00f-41cc-af10-3e15f41485ad" x1="0" y1="0" x2="-125.60965516825179" y2="27.572851134494293" stroke="rgba(255, 255, 255, 0)" stroke-width="30"></line></g><g><line class="connector" id="5fa06e93-5f01-4fb9-8afb-836afc1f14da" transform="translate(802,540) scale(1,1) " x1="-19.0086071749201" y1="-40.585945049153736" x2="-128.99139282507988" y2="-275.41405495084626" stroke="#808080" stroke-width="3" marker-start="url(#arrowRight)" stroke-linecap="butt"></line><line transform="translate(802,540) " class="outer-connector" id="5fa06e93-5f01-4fb9-8afb-836afc1f14da" x1="0" y1="0" x2="-137.47419602129415" y2="-293.52598609951997" stroke="rgba(255, 255, 255, 0)" stroke-width="30"></line></g><g><line class="connector" id="729327eb-c06b-42f6-9d3e-d9a49177ace1" transform="translate(582,766) scale(1,1) " x1="-59.10974802530189" y1="8.392124719641627" x2="-102.8902519746981" y2="14.607875280358373" stroke="#808080" stroke-width="3" marker-start="url(#arrowRight)" stroke-linecap="butt"></line><line transform="translate(582,766) " class="outer-connector" id="729327eb-c06b-42f6-9d3e-d9a49177ace1" x1="0" y1="0" x2="-122.69167907341642" y2="17.41918900425048" stroke="rgba(255, 255, 255, 0)" stroke-width="30"></line></g><g><line class="connector" id="11bf8bd7-412f-458f-a6fa-a40db282358b" transform="translate(598,860) scale(1,1) " x1="-53.765809807449166" y1="-21.445912900724107" x2="-124.23419019255084" y2="-49.5540870992759" stroke="#808080" stroke-width="3" marker-start="url(#arrowRight)" stroke-linecap="butt"></line><line transform="translate(598,860) " class="outer-connector" id="11bf8bd7-412f-458f-a6fa-a40db282358b" x1="0" y1="0" x2="-142.8109127827164" y2="-56.9639034133307" stroke="rgba(255, 255, 255, 0)" stroke-width="30"></line></g><g><line class="connector" id="f4b2c091-a7bd-4e09-87fd-aeeb3b618970" transform="translate(272,713) scale(1,1) " x1="50.47122112411101" y1="25.917654090759704" x2="97.52877887588902" y2="50.082345909240296" stroke="#808080" stroke-width="3" marker-start="url(#arrowRight)" stroke-linecap="butt"></line><line transform="translate(272,713) " class="outer-connector" id="f4b2c091-a7bd-4e09-87fd-aeeb3b618970" x1="0" y1="0" x2="115.32011923875979" y2="59.218439609092854" stroke="rgba(255, 255, 255, 0)" stroke-width="30"></line></g><g><line class="connector" id="d761ace6-e29e-43a6-b90e-54929d3c2e6c" transform="translate(420,789) scale(1,1) " x1="42.87675209365114" y1="-32.83599369197334" x2="115.12324790634884" y2="-88.16400630802664" stroke="#808080" stroke-width="3" marker-start="url(#arrowRight)" stroke-linecap="butt"></line><line transform="translate(420,789) " class="outer-connector" id="d761ace6-e29e-43a6-b90e-54929d3c2e6c" x1="0" y1="0" x2="131.00184298252714" y2="-100.32419620813786" stroke="rgba(255, 255, 255, 0)" stroke-width="30"></line></g><g transform="translate(802,540) scale(0.45)"><rect id="0ff52b9d-8b42-47dc-adcb-93ead6b091a3" class="node" x="-100" y="-60" width="200" height="120" transform="translate(0,0)" fill="#F0EEC0" stroke="#F3F033" stroke-width="5"></rect><text id="0ff52b9d-8b42-47dc-adcb-93ead6b091a3" class="noselect node" x="0" fill="black" alignment-baseline="center" text-anchor="middle" font-size="20px" y="-20">Acceptance  <tspan dy="1.1em" x="0">of</tspan> a new  <tspan dy="1.1em" x="0">material</tspan> system</text></g><g transform="translate(1100,883) scale(0.45)"><ellipse id="a1344137-3ff8-421a-b120-97d34fa1899f" class="node" null="cy" rx="100" ry="70" transform="translate(0,0)" fill="#B9F1B9" stroke="#22AA22" stroke-width="9" opacity="1"></ellipse><text id="a1344137-3ff8-421a-b120-97d34fa1899f" class="noselect node" x="0" fill="black" alignment-baseline="center" text-anchor="middle" font-size="20px" y="0">reliable</text></g><g transform="translate(598,860) scale(0.45)"><g><polygon id="faee962a-96a2-44d2-937f-d74721e11035" class="node" points="-100,0 -60,-60 60,-60 100,0 60,60 -60,60" transform="translate(0,0)" fill="rgb(247, 151, 226)" stroke="rgb(142, 19, 146)" stroke-width="5"></polygon><ellipse id="faee962a-96a2-44d2-937f-d74721e11035" class="node" null="cy" rx="90" ry="55" transform="translate(0,0)" fill="rgb(247, 151, 226)" stroke="rgb(142, 19, 146)" stroke-width="3"></ellipse></g><text id="faee962a-96a2-44d2-937f-d74721e11035" class="noselect node" x="0" fill="black" alignment-baseline="center" text-anchor="middle" font-size="20px" y="-20">passive  <tspan dy="1.1em" x="0">behavior</tspan>  <tspan dy="1.1em" x="0">change</tspan> due to  <tspan dy="1.1em" x="0">environmental</tspan>  <tspan dy="1.1em" x="0">impact</tspan></text></g><g transform="translate(669,437) scale(0.45)"><g><polygon id="95d87784-a2fb-42b5-b98a-3e012f4134e3" class="node" points="-100,0 -60,-60 60,-60 100,0 60,60 -60,60" transform="translate(0,0)" fill="rgb(247, 151, 226)" stroke="rgb(142, 19, 146)" stroke-width="5"></polygon><ellipse id="95d87784-a2fb-42b5-b98a-3e012f4134e3" class="node" null="cy" rx="90" ry="55" transform="translate(0,0)" fill="rgb(247, 151, 226)" stroke="rgb(142, 19, 146)" stroke-width="3"></ellipse></g><text id="95d87784-a2fb-42b5-b98a-3e012f4134e3" class="noselect node" x="0" fill="black" alignment-baseline="center" text-anchor="middle" font-size="20px" y="0">intelligent</text></g><g transform="translate(376,278) scale(0.45)"><ellipse id="63d01330-e4a6-495a-aac0-b9e11aa71c41" class="node" null="cy" rx="100" ry="70" transform="translate(0,0)" fill="#B9F1B9" stroke="#22AA22" stroke-width="3" opacity="1"></ellipse><text id="63d01330-e4a6-495a-aac0-b9e11aa71c41" class="noselect node" x="0" fill="black" alignment-baseline="center" text-anchor="middle" font-size="20px" y="0">energy-autonomous</text></g><g transform="translate(814,879) scale(0.45)"><ellipse id="debd55d1-f899-4376-bbae-4cb918ffa845" class="node" null="cy" rx="100" ry="70" transform="translate(0,0)" fill="#B9F1B9" stroke="#22AA22" stroke-width="6" opacity="1"></ellipse><text id="debd55d1-f899-4376-bbae-4cb918ffa845" class="noselect node" x="0" fill="black" alignment-baseline="center" text-anchor="middle" font-size="20px" y="0">resilient</text></g><g transform="translate(816,791) scale(0.45)"><ellipse id="e20d28cc-d55e-4b78-a12a-02677694416e" class="node" null="cy" rx="100" ry="70" transform="translate(0,0)" fill="#B9F1B9" stroke="#22AA22" stroke-width="9" opacity="1"></ellipse><text id="e20d28cc-d55e-4b78-a12a-02677694416e" class="noselect node" x="0" fill="black" alignment-baseline="center" text-anchor="middle" font-size="20px" y="0">durable</text></g><g transform="translate(1187,802) scale(0.45)"><ellipse id="1ea477fe-ec59-4805-847e-3521acda2ad7" class="node" null="cy" rx="100" ry="70" transform="translate(0,0)" fill="#B9F1B9" stroke="#22AA22" stroke-width="6" opacity="1"></ellipse><text id="1ea477fe-ec59-4805-847e-3521acda2ad7" class="noselect node" x="0" fill="black" alignment-baseline="center" text-anchor="middle" font-size="20px" y="0">maintenance-free</text></g><g transform="translate(834,234) scale(0.45)"><polygon id="3b9c95ed-b293-4f28-afcb-21c88b7b4dec" class="node" points="-100,0 -60,-60 60,-60 100,0 60,60 -60,60" transform="translate(0,0)" fill="#EB8989" stroke="#E04848" stroke-width="6"></polygon><text id="3b9c95ed-b293-4f28-afcb-21c88b7b4dec" class="noselect node" x="0" fill="black" alignment-baseline="center" text-anchor="middle" font-size="20px" y="0">contains plastic</text></g><g transform="translate(1146,630) scale(0.45)"><ellipse id="6c8ce5b3-80c7-42cb-9fd5-d47f199a7f9a" class="node" null="cy" rx="100" ry="70" transform="translate(0,0)" fill="#B9F1B9" stroke="#22AA22" stroke-width="3" opacity="1"></ellipse><text id="6c8ce5b3-80c7-42cb-9fd5-d47f199a7f9a" class="noselect node" x="0" fill="black" alignment-baseline="center" text-anchor="middle" font-size="20px" y="0">electronics-free</text></g><g transform="translate(1106,424) scale(0.45)"><ellipse id="8d2e1159-992b-4fcc-bba2-b7efb12208ae" class="node" null="cy" rx="100" ry="70" transform="translate(0,0)" fill="#B9F1B9" stroke="#22AA22" stroke-width="9" opacity="1"></ellipse><text id="8d2e1159-992b-4fcc-bba2-b7efb12208ae" class="noselect node" x="0" fill="black" alignment-baseline="center" text-anchor="middle" font-size="20px" y="0">environmentally friendly</text></g><g transform="translate(401,416) scale(0.45)"><polygon id="d73de8a6-b82b-4b3f-884f-5cdd3984577e" class="node" points="-100,0 -60,-60 60,-60 100,0 60,60 -60,60" transform="translate(0,0)" fill="#EB8989" stroke="#E04848" stroke-width="9"></polygon><text id="d73de8a6-b82b-4b3f-884f-5cdd3984577e" class="noselect node" x="0" fill="black" alignment-baseline="center" text-anchor="middle" font-size="20px" y="0">high-maintenance</text></g><g transform="translate(654,224) scale(0.45)"><rect id="b7c672b6-f308-4bbf-ae55-395b2beda1ae" class="node" x="-100" y="-60" width="200" height="120" transform="translate(0,0)" fill="#F0EEC0" stroke="#F3F033" stroke-width="5"></rect><text id="b7c672b6-f308-4bbf-ae55-395b2beda1ae" class="noselect node" x="0" fill="black" alignment-baseline="center" text-anchor="middle" font-size="20px" y="0">insect-like</text></g><g transform="translate(689,663) scale(0.45)"><ellipse id="df83f784-219e-4b29-b874-1d4cf73750e9" class="node" null="cy" rx="100" ry="70" transform="translate(0,0)" fill="#B9F1B9" stroke="#22AA22" stroke-width="3" opacity="1"></ellipse><text id="df83f784-219e-4b29-b874-1d4cf73750e9" class="noselect node" x="0" fill="black" alignment-baseline="center" text-anchor="middle" font-size="20px" y="0">multifunctional</text></g><g transform="translate(1246,354) scale(0.45)"><ellipse id="8371d9f5-a815-4e4c-92a1-471bf8c94732" class="node" null="cy" rx="100" ry="70" transform="translate(0,0)" fill="#B9F1B9" stroke="#22AA22" stroke-width="9" opacity="1"></ellipse><text id="8371d9f5-a815-4e4c-92a1-471bf8c94732" class="noselect node" x="0" fill="black" alignment-baseline="center" text-anchor="middle" font-size="20px" y="0">ecologically</text></g><g transform="translate(526,559) scale(0.45)"><ellipse id="de6434fc-daa2-4449-8731-08780235d7fe" class="node" null="cy" rx="100" ry="70" transform="translate(0,0)" fill="#B9F1B9" stroke="#22AA22" stroke-width="3" opacity="1"></ellipse><text id="de6434fc-daa2-4449-8731-08780235d7fe" class="noselect node" x="0" fill="black" alignment-baseline="center" text-anchor="middle" font-size="20px" y="0">self-repairing</text></g><g transform="translate(332,180) scale(0.45)"><ellipse id="470af10c-43df-48e2-8eed-b235be6ff54b" class="node" null="cy" rx="100" ry="70" transform="translate(0,0)" fill="#B9F1B9" stroke="#22AA22" stroke-width="3" opacity="1"></ellipse><text id="470af10c-43df-48e2-8eed-b235be6ff54b" class="noselect node" x="0" fill="black" alignment-baseline="center" text-anchor="middle" font-size="20px" y="0">energy storing</text></g><g transform="translate(222,294) scale(0.45)"><ellipse id="ee87a408-f31a-48ec-9596-6c47a1d7d4b4" class="node" null="cy" rx="100" ry="70" transform="translate(0,0)" fill="#B9F1B9" stroke="#22AA22" stroke-width="3" opacity="1"></ellipse><text id="ee87a408-f31a-48ec-9596-6c47a1d7d4b4" class="noselect node" x="0" fill="black" alignment-baseline="center" text-anchor="middle" font-size="20px" y="0">energy generating</text></g><g transform="translate(971,880) scale(0.45)"><ellipse id="927f37f8-e3e6-4fd5-b61e-91ccab75408b" class="node" null="cy" rx="100" ry="70" transform="translate(0,0)" fill="#B9F1B9" stroke="#22AA22" stroke-width="6" opacity="1"></ellipse><text id="927f37f8-e3e6-4fd5-b61e-91ccab75408b" class="noselect node" x="0" fill="black" alignment-baseline="center" text-anchor="middle" font-size="20px" y="0">robust</text></g><g transform="translate(1111,304) scale(0.45)"><ellipse id="c2ab0875-a6ca-4bd3-bcbd-95618868b76a" class="node" null="cy" rx="100" ry="70" transform="translate(0,0)" fill="#B9F1B9" stroke="#22AA22" stroke-width="3" opacity="1"></ellipse><text id="c2ab0875-a6ca-4bd3-bcbd-95618868b76a" class="noselect node" x="0" fill="black" alignment-baseline="center" text-anchor="middle" font-size="20px" y="0">bio-inspired</text></g><g transform="translate(985,541) scale(0.45)"><ellipse id="282999bb-3564-49bc-817d-de7439562f78" class="node" null="cy" rx="100" ry="70" transform="translate(0,0)" fill="#B9F1B9" stroke="#22AA22" stroke-width="9" opacity="1"></ellipse><text id="282999bb-3564-49bc-817d-de7439562f78" class="noselect node" x="0" fill="black" alignment-baseline="center" text-anchor="middle" font-size="20px" y="0">sustainable</text></g><g transform="translate(420,789) scale(0.45)"><ellipse id="620681c4-a4bc-44cb-a594-ba07940939b9" class="node" null="cy" rx="100" ry="70" transform="translate(0,0)" fill="#B9F1B9" stroke="#22AA22" stroke-width="3" opacity="1"></ellipse><text id="620681c4-a4bc-44cb-a594-ba07940939b9" class="noselect node" x="0" fill="black" alignment-baseline="center" text-anchor="middle" font-size="20px" y="0">responsive</text></g><g transform="translate(541,226) scale(0.45)"><rect id="259a54f1-926f-46a2-a866-349f71deec10" class="node" x="-100" y="-60" width="200" height="120" transform="translate(0,0)" fill="#F0EEC0" stroke="#F3F033" stroke-width="5"></rect><text id="259a54f1-926f-46a2-a866-349f71deec10" class="noselect node" x="0" fill="black" alignment-baseline="center" text-anchor="middle" font-size="20px" y="0">life-like</text></g><g transform="translate(834,375) scale(0.45)"><polygon id="7c052aa3-bb61-4643-b5b7-9049391161a0" class="node" points="-100,0 -60,-60 60,-60 100,0 60,60 -60,60" transform="translate(0,0)" fill="#EB8989" stroke="#E04848" stroke-width="9"></polygon><text id="7c052aa3-bb61-4643-b5b7-9049391161a0" class="noselect node" x="0" fill="black" alignment-baseline="center" text-anchor="middle" font-size="20px" y="0">environmentally harmful</text></g><g transform="translate(1196,513) scale(0.45)"><ellipse id="f167cf2b-7236-4882-9b03-f67c3e780d48" class="node" null="cy" rx="100" ry="70" transform="translate(0,0)" fill="#B9F1B9" stroke="#22AA22" stroke-width="6" opacity="1"></ellipse><text id="f167cf2b-7236-4882-9b03-f67c3e780d48" class="noselect node" x="0" fill="black" alignment-baseline="center" text-anchor="middle" font-size="20px" y="0">energy-efficient</text></g><g transform="translate(272,713) scale(0.45)"><g><polygon id="060d49a4-f03e-485f-9175-0e0e2c69d972" class="node" points="-100,0 -60,-60 60,-60 100,0 60,60 -60,60" transform="translate(0,0)" fill="rgb(247, 151, 226)" stroke="rgb(142, 19, 146)" stroke-width="5"></polygon><ellipse id="060d49a4-f03e-485f-9175-0e0e2c69d972" class="node" null="cy" rx="90" ry="55" transform="translate(0,0)" fill="rgb(247, 151, 226)" stroke="rgb(142, 19, 146)" stroke-width="3"></ellipse></g><text id="060d49a4-f03e-485f-9175-0e0e2c69d972" class="noselect node" x="0" fill="black" alignment-baseline="center" text-anchor="middle" font-size="20px" y="-20">active  <tspan dy="1.1em" x="0">behavior</tspan> change  <tspan dy="1.1em" x="0">due</tspan> to  <tspan dy="1.1em" x="0">environmental</tspan>  <tspan dy="1.1em" x="0">impact</tspan></text></g><g transform="translate(311,532) scale(0.45)"><polygon id="7e87c97e-25d9-4935-8afc-f922231843c7" class="node" points="-100,0 -60,-60 60,-60 100,0 60,60 -60,60" transform="translate(0,0)" fill="#EB8989" stroke="#E04848" stroke-width="3"></polygon><text id="7e87c97e-25d9-4935-8afc-f922231843c7" class="noselect node" x="0" fill="black" alignment-baseline="center" text-anchor="middle" font-size="20px" y="0">autonomous</text></g><g transform="translate(1370,867) scale(0.45)"><polygon id="d23f72c0-3f2e-46dd-b11a-3a6a77398c93" class="node" points="-100,0 -60,-60 60,-60 100,0 60,60 -60,60" transform="translate(0,0)" fill="#EB8989" stroke="#E04848" stroke-width="6"></polygon><text id="d23f72c0-3f2e-46dd-b11a-3a6a77398c93" class="noselect node" x="0" fill="black" alignment-baseline="center" text-anchor="middle" font-size="20px" y="0">easily destructible</text></g><g transform="translate(582,766) scale(0.45)"><g><polygon id="9aac6188-92c3-4b05-b2fe-84523c4fa854" class="node" points="-100,0 -60,-60 60,-60 100,0 60,60 -60,60" transform="translate(0,0)" fill="rgb(247, 151, 226)" stroke="rgb(142, 19, 146)" stroke-width="5"></polygon><ellipse id="9aac6188-92c3-4b05-b2fe-84523c4fa854" class="node" null="cy" rx="90" ry="55" transform="translate(0,0)" fill="rgb(247, 151, 226)" stroke="rgb(142, 19, 146)" stroke-width="3"></ellipse></g><text id="9aac6188-92c3-4b05-b2fe-84523c4fa854" class="noselect node" x="0" fill="black" alignment-baseline="center" text-anchor="middle" font-size="20px" y="-20">active  <tspan dy="1.1em" x="0">shape</tspan> change due  <tspan dy="1.1em" x="0">to</tspan>  <tspan dy="1.1em" x="0">environmental</tspan>  <tspan dy="1.1em" x="0">impact</tspan></text></g><g transform="translate(578,668) scale(0.45)"><g><polygon id="40311d64-54ee-4405-a3a9-104037287514" class="node" points="-100,0 -60,-60 60,-60 100,0 60,60 -60,60" transform="translate(0,0)" fill="rgb(247, 151, 226)" stroke="rgb(142, 19, 146)" stroke-width="5"></polygon><ellipse id="40311d64-54ee-4405-a3a9-104037287514" class="node" null="cy" rx="90" ry="55" transform="translate(0,0)" fill="rgb(247, 151, 226)" stroke="rgb(142, 19, 146)" stroke-width="3"></ellipse></g><text id="40311d64-54ee-4405-a3a9-104037287514" class="noselect node" x="0" fill="black" alignment-baseline="center" text-anchor="middle" font-size="20px" y="-20">passive  <tspan dy="1.1em" x="0">shape</tspan> change  <tspan dy="1.1em" x="0">due</tspan> to  <tspan dy="1.1em" x="0">environmental</tspan>  <tspan dy="1.1em" x="0">impact</tspan></text></g><g transform="translate(939,682) scale(0.45)"><ellipse id="6c01a483-78e9-4227-ba96-42d6239d64da" class="node" null="cy" rx="100" ry="70" transform="translate(0,0)" fill="#B9F1B9" stroke="#22AA22" stroke-width="9" opacity="1"></ellipse><text id="6c01a483-78e9-4227-ba96-42d6239d64da" class="noselect node" x="0" fill="black" alignment-baseline="center" text-anchor="middle" font-size="20px" y="0">long-lasting</text></g><g transform="translate(436,677) scale(0.45)"><ellipse id="84afab76-0ca1-4cf7-a8c1-bdf59d22af86" class="node" null="cy" rx="100" ry="70" transform="translate(0,0)" fill="#B9F1B9" stroke="#22AA22" stroke-width="3" opacity="1"></ellipse><text id="84afab76-0ca1-4cf7-a8c1-bdf59d22af86" class="noselect node" x="0" fill="black" alignment-baseline="center" text-anchor="middle" font-size="20px" y="0">self-healing</text></g><g transform="translate(204,421) scale(0.45)"><polygon id="38d2e424-5797-4c23-922e-99aaf21f1239" class="node" points="-100,0 -60,-60 60,-60 100,0 60,60 -60,60" transform="translate(0,0)" fill="#EB8989" stroke="#E04848" stroke-width="3"></polygon><text id="38d2e424-5797-4c23-922e-99aaf21f1239" class="noselect node" x="0" fill="black" alignment-baseline="center" text-anchor="middle" font-size="20px" y="0">technological</text></g></svg>